<svg width="12" height="12" viewBox="0 0 12 12" fill="none" xmlns="http://www.w3.org/2000/svg"><path fill-rule="evenodd" clip-rule="evenodd" d="M11.2096 0.290368C11.5968 0.677526 11.5968 1.30523 11.2096 1.69239L1.69239 11.2096C1.30523 11.5968 0.677526 11.5968 0.290368 11.2096C-0.0967894 10.8225 -0.0967894 10.1948 0.290368 9.80761L9.80761 0.290368C10.1948 -0.0967894 10.8225 -0.0967894 11.2096 0.290368Z" fill="#F16A5E"></path><path fill-rule="evenodd" clip-rule="evenodd" d="M0.290368 0.290368C0.677526 -0.0967894 1.30523 -0.0967894 1.69239 0.290368L11.2096 9.80761C11.5968 10.1948 11.5968 10.8225 11.2096 11.2096C10.8225 11.5968 10.1948 11.5968 9.80761 11.2096L0.290368 1.69239C-0.0967894 1.30523 -0.0967894 0.677526 0.290368 0.290368Z" fill="#F16A5E"></path></svg>